<?xml version="1.0" encoding="utf-8"?>
<svg viewBox="53.816 161.764 101.941 162.785" xmlns="http://www.w3.org/2000/svg" xmlns:bx="https://boxy-svg.com">
  <g transform="matrix(1, 0, 0, 1, -145.166122, -0.426025)">
    <title>fg</title>
    <path d="M 222.355 319.443 C 222.355 320.136 222.355 320.483 222.355 320.483 C 221.8 320.483 221.384 320.136 221.107 319.443 C 219.165 314.457 218.331 309.125 218.609 303.446 C 218.886 297.757 219.858 291.934 221.523 285.979 C 223.188 280.022 225.44 274.028 228.28 267.997 C 231.119 261.976 234.203 256.125 237.533 250.446 C 233.788 247.949 230.703 244.796 228.28 240.984 C 225.856 237.173 223.742 233.122 221.939 228.83 C 219.719 223.697 217.85 218.499 216.334 213.236 C 214.807 207.973 213.35 202.849 211.964 197.863 C 210.576 192.869 209.119 188.124 207.593 183.628 C 206.077 179.123 204.277 175.067 202.196 171.46 C 202.196 170.906 202.265 170.698 202.404 170.836 C 206.696 173.889 210.058 177.631 212.491 182.06 C 214.915 186.5 216.921 191.282 218.512 196.407 C 220.104 201.53 221.592 206.83 222.98 212.307 C 224.367 217.782 226.166 223.012 228.377 227.998 C 229.903 231.457 231.6 234.676 233.469 237.654 C 235.345 240.633 237.668 243.439 240.434 246.076 L 243.138 241.705 C 242.168 240.466 241.442 239.323 240.96 238.278 C 240.47 237.242 240.434 236.585 240.849 236.308 C 241.127 236.308 241.612 236.549 242.306 237.03 C 243 237.519 243.764 238.25 244.595 239.222 C 245.983 237.696 247.023 236.17 247.717 234.643 C 245.219 230.074 243.038 225.296 241.168 220.311 C 239.299 215.316 237.533 210.188 235.868 204.925 C 234.481 200.496 233.025 196.199 231.499 192.036 C 229.972 187.883 227.826 183.383 225.061 178.536 C 224.922 178.259 224.746 178.013 224.534 177.801 C 224.33 177.597 224.298 177.427 224.437 177.288 C 224.714 177.011 225.199 177.08 225.892 177.496 C 228.796 178.735 231.392 181.052 233.677 184.447 C 235.971 187.841 238.015 191.551 239.808 195.574 C 241.612 199.588 243.171 203.57 244.484 207.52 C 245.807 211.47 246.884 214.623 247.717 216.981 L 252.073 228.414 C 259.833 217.047 267.284 205.962 274.425 195.158 C 281.556 184.354 286.925 173.754 290.533 163.358 C 290.801 162.664 290.935 162.317 290.935 162.317 C 291.213 162.04 291.388 162.216 291.463 162.845 C 291.528 163.465 291.56 163.844 291.56 163.982 C 290.875 171.881 288.798 179.643 285.33 187.263 C 281.871 194.884 277.751 202.469 272.968 210.017 C 268.186 217.565 263.025 225.15 257.484 232.77 C 251.935 240.392 246.806 248.084 242.099 255.843 C 239.056 260.829 236.215 266.096 233.58 271.646 C 230.943 277.186 228.692 282.76 226.823 288.365 C 224.954 293.98 223.604 299.455 222.772 304.791 C 221.939 310.129 221.8 315.013 222.355 319.443 Z M 263.506 264.987 C 261.425 268.317 259.21 271.748 256.86 275.282 C 254.502 278.815 252.111 282.242 249.687 285.562 C 247.264 288.892 244.942 292.079 242.722 295.122 C 240.503 298.174 238.495 300.948 236.702 303.446 C 236.007 304.407 235.383 305.134 234.829 305.624 C 234.273 306.106 233.926 306.276 233.788 306.137 C 233.51 306.137 233.51 305.721 233.788 304.888 C 234.065 304.067 234.342 303.307 234.619 302.613 C 239.05 291.246 244.627 280.299 251.352 269.773 C 258.068 259.238 264.958 248.639 272.025 237.973 C 276.326 231.323 280.692 224.636 285.122 217.912 C 289.552 211.196 293.433 203.473 296.763 194.742 C 297.04 194.047 297.141 193.632 297.068 193.493 C 297.002 193.354 297.109 193.285 297.387 193.285 C 297.664 193.424 297.803 193.701 297.803 194.117 C 297.803 194.534 297.803 194.95 297.803 195.366 C 297.803 198.408 297.179 201.873 295.93 205.758 C 294.682 209.632 293.017 213.754 290.935 218.12 C 288.864 222.486 286.579 226.92 284.082 231.425 C 281.584 235.93 279.054 240.258 276.492 244.411 C 273.93 248.573 271.507 252.421 269.222 255.955 C 266.937 259.488 265.033 262.499 263.506 264.987 Z M 283.249 215.316 C 278.403 222.799 273.07 230.561 267.252 238.598 C 261.434 246.636 255.68 254.049 249.992 260.838 C 249.715 261.115 249.095 261.772 248.133 262.808 C 247.163 263.845 246.468 264.223 246.052 263.946 C 245.775 263.669 245.876 262.943 246.357 261.768 C 246.848 260.592 247.232 259.798 247.509 259.381 C 248.48 257.439 249.656 255.188 251.033 252.625 C 252.421 250.062 253.877 247.464 255.403 244.827 C 256.929 242.201 258.487 239.638 260.079 237.141 C 261.671 234.643 263.09 232.497 264.338 230.703 C 264.894 229.871 266.003 228.104 267.668 225.403 C 269.323 222.694 271.192 219.502 273.273 215.831 C 275.355 212.158 277.575 208.176 279.933 203.885 C 282.282 199.593 284.429 195.404 286.371 191.315 C 288.313 187.226 289.974 183.416 291.352 179.882 C 292.74 176.349 293.502 173.542 293.641 171.46 C 293.918 170.074 294.126 169.379 294.265 169.379 C 294.543 169.379 294.751 169.694 294.89 170.323 C 295.028 170.943 295.167 171.391 295.306 171.669 C 295.86 174.582 295.86 177.978 295.306 181.852 C 294.751 185.738 293.887 189.723 292.711 193.812 C 291.528 197.89 290.071 201.835 288.341 205.647 C 286.61 209.458 284.914 212.681 283.249 215.316 Z M 228.585 191.62 C 230.111 196.754 231.605 202.192 233.067 207.936 C 234.519 213.689 235.73 219.267 236.702 224.669 C 236.84 224.946 236.872 225.393 236.799 226.013 C 236.733 226.642 236.563 227.096 236.284 227.373 C 236.007 227.512 235.591 227.304 235.037 226.749 C 234.481 226.195 234.134 225.778 233.996 225.5 C 233.302 224.53 232.539 223.281 231.707 221.755 C 230.874 220.238 230.111 218.646 229.417 216.981 C 228.723 215.316 228.067 213.652 227.447 211.988 C 226.826 210.332 226.31 208.88 225.892 207.631 C 225.477 206.243 224.607 203.853 223.285 200.458 C 221.971 197.062 220.45 193.493 218.72 189.747 C 216.99 186.01 215.187 182.477 213.309 179.147 C 211.441 175.827 209.743 173.542 208.217 172.293 C 207.395 171.46 207.122 171.044 207.399 171.044 C 207.527 170.906 207.801 170.906 208.217 171.044 C 208.634 171.183 208.981 171.321 209.258 171.46 C 211.477 172.155 213.66 173.264 215.807 174.79 C 217.953 176.316 219.896 178.047 221.634 179.979 C 223.364 181.921 224.815 183.896 225.991 185.904 C 227.174 187.919 228.039 189.826 228.585 191.62 Z M 229.834 308.634 C 229.278 311.271 228.9 313.593 228.696 315.599 C 228.484 317.607 228.377 319.374 228.377 320.899 C 228.377 321.178 228.377 321.524 228.377 321.94 C 228.377 322.356 228.173 322.564 227.767 322.564 C 227.488 322.564 227.174 322.389 226.823 322.037 C 226.48 321.694 226.24 321.316 226.102 320.899 C 225.823 320.206 225.546 319.513 225.269 318.818 C 224.991 318.125 224.783 317.33 224.645 316.432 C 224.506 315.526 224.506 314.346 224.645 312.894 C 224.783 311.441 225.061 309.606 225.477 307.386 C 225.892 305.583 226.518 303.367 227.349 300.74 C 228.173 298.104 229.07 295.575 230.042 293.152 C 231.012 290.728 231.952 288.753 232.857 287.227 C 233.756 285.7 234.481 285.076 235.037 285.354 C 235.175 285.492 235.207 285.979 235.134 286.811 C 235.068 287.644 234.898 288.576 234.619 289.614 C 234.342 290.659 234.065 291.667 233.788 292.637 C 233.51 293.599 233.302 294.288 233.164 294.706 C 232.469 297.064 231.883 299.386 231.402 301.671 C 230.911 303.956 230.388 306.276 229.834 308.634 Z" style="text-transform: uppercase; white-space: pre; fill: rgb(255, 255, 255);"/>
    <path d="M 198.982 247.298 H 198.982 L 198.982 237.923 L 223.982 250.423 L 198.982 262.923 L 198.982 253.548 H 198.982 V 247.298 Z" style="fill: rgb(37, 56, 79);" bx:shape="arrow 198.982 237.923 25 25 6.25 25 0 1@88b9a0e5"/>
    <circle style="fill: rgb(37, 56, 79);" cx="290.923" cy="314.975" r="10"/>
  </g>
</svg>