<?xml version="1.0" encoding="utf-8"?>
<svg viewBox="2.675 148 539.924 204" xmlns="http://www.w3.org/2000/svg" xmlns:bx="https://boxy-svg.com">
  <g transform="matrix(1, 0, 0, 1, -145.166122, -0.426025)">
    <title>logo</title>
    <g transform="matrix(-1.02, 0, 0, -1.02, 504.841156, 505.904388)">
      <title>bg</title>
      <path style="fill: rgb(245, 200, 53);" d="M 166 150.469 H 234 A 16 16 0 0 1 250 166.469 V 250.469 H 150 V 166.469 A 16 16 0 0 1 166 150.469 Z" bx:shape="rect 150 150.469 100 100 16 16 0 0 1@2b6fa2a1"/>
      <path style="fill: rgb(134, 195, 233);" d="M -334 -350.469 H -166 A 16 16 0 0 1 -150 -334.469 V -250.469 H -350 V -334.469 A 16 16 0 0 1 -334 -350.469 Z" transform="matrix(-1, 0, 0, -1, 0, 0)" bx:shape="rect -350 -350.469 200 100 16 16 0 0 1@6c8e7947"/>
      <path style="fill: rgb(34, 134, 70);" d="M 266 150.469 H 334 A 16 16 0 0 1 350 166.469 V 250.469 H 250 V 166.469 A 16 16 0 0 1 266 150.469 Z" bx:shape="rect 250 150.469 100 100 16 16 0 0 1@482362eb"/>
    </g>
    <g transform="matrix(1, 0, 0, 10.195782, -0.022047, -3068.64624)" style="">
      <title>bunq</title>
      <rect x="165.001" y="325.534" width="17" height="10" style="fill: rgb(47, 155, 71);"/>
      <rect x="182.001" y="325.534" width="17" height="10" style="fill: rgb(98, 182, 79);"/>
      <rect x="199.001" y="325.534" width="17" height="10" style="fill: rgb(138, 204, 83);"/>
      <rect x="216.001" y="325.534" width="17" height="10" style="fill: rgb(63, 184, 173);"/>
      <rect x="233.001" y="325.534" width="17" height="10" style="fill: rgb(52, 148, 214);"/>
      <rect x="250.001" y="325.534" width="17" height="10" style="fill: rgb(41, 114, 187);"/>
      <rect x="267.001" y="325.534" width="17" height="10" style="fill: rgb(30, 92, 132);"/>
      <rect x="284.001" y="325.534" width="17" height="10" style="fill: rgb(153, 49, 51);"/>
      <rect x="301.001" y="325.534" width="17" height="10" style="fill: rgb(225, 47, 48);"/>
      <rect x="318.001" y="325.534" width="17" height="10" style="fill: rgb(243, 135, 37);"/>
    </g>
    <g>
      <title>fg</title>
      <path d="M 222.355 319.443 C 222.355 320.136 222.355 320.483 222.355 320.483 C 221.8 320.483 221.384 320.136 221.107 319.443 C 219.165 314.457 218.331 309.125 218.609 303.446 C 218.886 297.757 219.858 291.934 221.523 285.979 C 223.188 280.022 225.44 274.028 228.28 267.997 C 231.119 261.976 234.203 256.125 237.533 250.446 C 233.788 247.949 230.703 244.796 228.28 240.984 C 225.856 237.173 223.742 233.122 221.939 228.83 C 219.719 223.697 217.85 218.499 216.334 213.236 C 214.807 207.973 213.35 202.849 211.964 197.863 C 210.576 192.869 209.119 188.124 207.593 183.628 C 206.077 179.123 204.277 175.067 202.196 171.46 C 202.196 170.906 202.265 170.698 202.404 170.836 C 206.696 173.889 210.058 177.631 212.491 182.06 C 214.915 186.5 216.921 191.282 218.512 196.407 C 220.104 201.53 221.592 206.83 222.98 212.307 C 224.367 217.782 226.166 223.012 228.377 227.998 C 229.903 231.457 231.6 234.676 233.469 237.654 C 235.345 240.633 237.668 243.439 240.434 246.076 L 243.138 241.705 C 242.168 240.466 241.442 239.323 240.96 238.278 C 240.47 237.242 240.434 236.585 240.849 236.308 C 241.127 236.308 241.612 236.549 242.306 237.03 C 243 237.519 243.764 238.25 244.595 239.222 C 245.983 237.696 247.023 236.17 247.717 234.643 C 245.219 230.074 243.038 225.296 241.168 220.311 C 239.299 215.316 237.533 210.188 235.868 204.925 C 234.481 200.496 233.025 196.199 231.499 192.036 C 229.972 187.883 227.826 183.383 225.061 178.536 C 224.922 178.259 224.746 178.013 224.534 177.801 C 224.33 177.597 224.298 177.427 224.437 177.288 C 224.714 177.011 225.199 177.08 225.892 177.496 C 228.796 178.735 231.392 181.052 233.677 184.447 C 235.971 187.841 238.015 191.551 239.808 195.574 C 241.612 199.588 243.171 203.57 244.484 207.52 C 245.807 211.47 246.884 214.623 247.717 216.981 L 252.073 228.414 C 259.833 217.047 267.284 205.962 274.425 195.158 C 281.556 184.354 286.925 173.754 290.533 163.358 C 290.801 162.664 290.935 162.317 290.935 162.317 C 291.213 162.04 291.388 162.216 291.463 162.845 C 291.528 163.465 291.56 163.844 291.56 163.982 C 290.875 171.881 288.798 179.643 285.33 187.263 C 281.871 194.884 277.751 202.469 272.968 210.017 C 268.186 217.565 263.025 225.15 257.484 232.77 C 251.935 240.392 246.806 248.084 242.099 255.843 C 239.056 260.829 236.215 266.096 233.58 271.646 C 230.943 277.186 228.692 282.76 226.823 288.365 C 224.954 293.98 223.604 299.455 222.772 304.791 C 221.939 310.129 221.8 315.013 222.355 319.443 Z M 263.506 264.987 C 261.425 268.317 259.21 271.748 256.86 275.282 C 254.502 278.815 252.111 282.242 249.687 285.562 C 247.264 288.892 244.942 292.079 242.722 295.122 C 240.503 298.174 238.495 300.948 236.702 303.446 C 236.007 304.407 235.383 305.134 234.829 305.624 C 234.273 306.106 233.926 306.276 233.788 306.137 C 233.51 306.137 233.51 305.721 233.788 304.888 C 234.065 304.067 234.342 303.307 234.619 302.613 C 239.05 291.246 244.627 280.299 251.352 269.773 C 258.068 259.238 264.958 248.639 272.025 237.973 C 276.326 231.323 280.692 224.636 285.122 217.912 C 289.552 211.196 293.433 203.473 296.763 194.742 C 297.04 194.047 297.141 193.632 297.068 193.493 C 297.002 193.354 297.109 193.285 297.387 193.285 C 297.664 193.424 297.803 193.701 297.803 194.117 C 297.803 194.534 297.803 194.95 297.803 195.366 C 297.803 198.408 297.179 201.873 295.93 205.758 C 294.682 209.632 293.017 213.754 290.935 218.12 C 288.864 222.486 286.579 226.92 284.082 231.425 C 281.584 235.93 279.054 240.258 276.492 244.411 C 273.93 248.573 271.507 252.421 269.222 255.955 C 266.937 259.488 265.033 262.499 263.506 264.987 Z M 283.249 215.316 C 278.403 222.799 273.07 230.561 267.252 238.598 C 261.434 246.636 255.68 254.049 249.992 260.838 C 249.715 261.115 249.095 261.772 248.133 262.808 C 247.163 263.845 246.468 264.223 246.052 263.946 C 245.775 263.669 245.876 262.943 246.357 261.768 C 246.848 260.592 247.232 259.798 247.509 259.381 C 248.48 257.439 249.656 255.188 251.033 252.625 C 252.421 250.062 253.877 247.464 255.403 244.827 C 256.929 242.201 258.487 239.638 260.079 237.141 C 261.671 234.643 263.09 232.497 264.338 230.703 C 264.894 229.871 266.003 228.104 267.668 225.403 C 269.323 222.694 271.192 219.502 273.273 215.831 C 275.355 212.158 277.575 208.176 279.933 203.885 C 282.282 199.593 284.429 195.404 286.371 191.315 C 288.313 187.226 289.974 183.416 291.352 179.882 C 292.74 176.349 293.502 173.542 293.641 171.46 C 293.918 170.074 294.126 169.379 294.265 169.379 C 294.543 169.379 294.751 169.694 294.89 170.323 C 295.028 170.943 295.167 171.391 295.306 171.669 C 295.86 174.582 295.86 177.978 295.306 181.852 C 294.751 185.738 293.887 189.723 292.711 193.812 C 291.528 197.89 290.071 201.835 288.341 205.647 C 286.61 209.458 284.914 212.681 283.249 215.316 Z M 228.585 191.62 C 230.111 196.754 231.605 202.192 233.067 207.936 C 234.519 213.689 235.73 219.267 236.702 224.669 C 236.84 224.946 236.872 225.393 236.799 226.013 C 236.733 226.642 236.563 227.096 236.284 227.373 C 236.007 227.512 235.591 227.304 235.037 226.749 C 234.481 226.195 234.134 225.778 233.996 225.5 C 233.302 224.53 232.539 223.281 231.707 221.755 C 230.874 220.238 230.111 218.646 229.417 216.981 C 228.723 215.316 228.067 213.652 227.447 211.988 C 226.826 210.332 226.31 208.88 225.892 207.631 C 225.477 206.243 224.607 203.853 223.285 200.458 C 221.971 197.062 220.45 193.493 218.72 189.747 C 216.99 186.01 215.187 182.477 213.309 179.147 C 211.441 175.827 209.743 173.542 208.217 172.293 C 207.395 171.46 207.122 171.044 207.399 171.044 C 207.527 170.906 207.801 170.906 208.217 171.044 C 208.634 171.183 208.981 171.321 209.258 171.46 C 211.477 172.155 213.66 173.264 215.807 174.79 C 217.953 176.316 219.896 178.047 221.634 179.979 C 223.364 181.921 224.815 183.896 225.991 185.904 C 227.174 187.919 228.039 189.826 228.585 191.62 Z M 229.834 308.634 C 229.278 311.271 228.9 313.593 228.696 315.599 C 228.484 317.607 228.377 319.374 228.377 320.899 C 228.377 321.178 228.377 321.524 228.377 321.94 C 228.377 322.356 228.173 322.564 227.767 322.564 C 227.488 322.564 227.174 322.389 226.823 322.037 C 226.48 321.694 226.24 321.316 226.102 320.899 C 225.823 320.206 225.546 319.513 225.269 318.818 C 224.991 318.125 224.783 317.33 224.645 316.432 C 224.506 315.526 224.506 314.346 224.645 312.894 C 224.783 311.441 225.061 309.606 225.477 307.386 C 225.892 305.583 226.518 303.367 227.349 300.74 C 228.173 298.104 229.07 295.575 230.042 293.152 C 231.012 290.728 231.952 288.753 232.857 287.227 C 233.756 285.7 234.481 285.076 235.037 285.354 C 235.175 285.492 235.207 285.979 235.134 286.811 C 235.068 287.644 234.898 288.576 234.619 289.614 C 234.342 290.659 234.065 291.667 233.788 292.637 C 233.51 293.599 233.302 294.288 233.164 294.706 C 232.469 297.064 231.883 299.386 231.402 301.671 C 230.911 303.956 230.388 306.276 229.834 308.634 Z" style="text-transform: uppercase; white-space: pre; fill: rgb(255, 255, 255);"/>
      <path d="M 198.982 247.298 H 198.982 L 198.982 237.923 L 223.982 250.423 L 198.982 262.923 L 198.982 253.548 H 198.982 V 247.298 Z" style="fill: rgb(37, 56, 79);" bx:shape="arrow 198.982 237.923 25 25 6.25 25 0 1@88b9a0e5"/>
      <circle style="fill: rgb(37, 56, 79);" cx="290.923" cy="314.975" r="10"/>
    </g>
    <path d="M 398.161 273.703 C 396.141 273.703 394.391 273.316 392.911 272.543 C 391.431 271.776 390.194 270.643 389.201 269.143 L 388.691 273.103 L 383.841 273.103 L 383.841 233.043 L 379.191 232.243 L 379.191 228.623 L 389.461 228.623 L 389.461 245.903 C 390.428 244.53 391.631 243.483 393.071 242.763 C 394.504 242.043 396.181 241.683 398.101 241.683 C 400.648 241.683 402.821 242.37 404.621 243.743 C 406.414 245.123 407.791 247.06 408.751 249.553 C 409.711 252.04 410.191 254.936 410.191 258.243 L 410.191 258.843 C 410.191 261.81 409.711 264.406 408.751 266.633 C 407.791 268.853 406.414 270.586 404.621 271.833 C 402.821 273.08 400.668 273.703 398.161 273.703 Z M 396.731 269.143 C 399.371 269.143 401.334 268.2 402.621 266.313 C 403.901 264.433 404.541 261.943 404.541 258.843 L 404.541 258.243 C 404.541 255.87 404.258 253.783 403.691 251.983 C 403.118 250.19 402.251 248.783 401.091 247.763 C 399.931 246.75 398.458 246.243 396.671 246.243 C 394.944 246.243 393.488 246.66 392.301 247.493 C 391.108 248.333 390.161 249.456 389.461 250.863 L 389.461 264.493 C 390.161 265.92 391.118 267.05 392.331 267.883 C 393.538 268.723 395.004 269.143 396.731 269.143 ZM 427.979 273.703 C 424.632 273.703 422.019 272.63 420.139 270.483 C 418.259 268.33 417.319 264.983 417.319 260.443 L 417.319 246.673 L 413.779 245.873 L 413.779 242.253 L 417.319 242.253 L 422.939 242.253 L 422.939 260.503 C 422.939 263.79 423.422 266.05 424.389 267.283 C 425.355 268.523 426.865 269.143 428.919 269.143 C 430.919 269.143 432.569 268.736 433.869 267.923 C 435.175 267.116 436.159 265.973 436.819 264.493 L 436.819 246.673 L 432.689 245.873 L 432.689 242.253 L 436.819 242.253 L 442.439 242.253 L 442.439 268.713 L 445.979 269.513 L 445.979 273.103 L 437.389 273.103 L 437.019 268.543 C 436.052 270.196 434.802 271.47 433.269 272.363 C 431.742 273.256 429.979 273.703 427.979 273.703 ZM 464.818 273.103 L 449.908 273.103 L 449.908 269.513 L 454.558 268.713 L 454.558 246.673 L 449.908 245.873 L 449.908 242.253 L 459.578 242.253 L 459.978 246.843 C 461.004 245.203 462.291 243.933 463.838 243.033 C 465.384 242.133 467.148 241.683 469.128 241.683 C 472.454 241.683 475.031 242.656 476.858 244.603 C 478.678 246.55 479.588 249.556 479.588 253.623 L 479.588 268.713 L 484.238 269.513 L 484.238 273.103 L 469.328 273.103 L 469.328 269.513 L 473.978 268.713 L 473.978 253.743 C 473.978 251.023 473.441 249.093 472.368 247.953 C 471.294 246.813 469.654 246.243 467.448 246.243 C 465.828 246.243 464.398 246.633 463.158 247.413 C 461.911 248.193 460.918 249.256 460.178 250.603 L 460.178 268.713 L 464.818 269.513 L 464.818 273.103 ZM 518.176 284.963 L 503.546 284.963 L 503.546 281.343 L 508.186 280.543 L 508.186 270.193 C 507.199 271.353 506.026 272.226 504.666 272.813 C 503.306 273.406 501.763 273.703 500.036 273.703 C 497.529 273.703 495.376 273.08 493.576 271.833 C 491.783 270.586 490.409 268.853 489.456 266.633 C 488.503 264.406 488.026 261.81 488.026 258.843 L 488.026 258.243 C 488.026 254.936 488.503 252.04 489.456 249.553 C 490.409 247.06 491.786 245.123 493.586 243.743 C 495.393 242.37 497.563 241.683 500.096 241.683 C 501.903 241.683 503.509 242.02 504.916 242.693 C 506.323 243.366 507.519 244.35 508.506 245.643 L 508.956 242.253 L 513.806 242.253 L 513.806 280.543 L 518.176 281.343 L 518.176 284.963 Z M 501.466 269.313 C 503.019 269.313 504.343 268.97 505.436 268.283 C 506.529 267.596 507.446 266.626 508.186 265.373 L 508.186 249.893 C 507.446 248.733 506.526 247.81 505.426 247.123 C 504.319 246.443 503.016 246.103 501.516 246.103 C 499.729 246.103 498.256 246.62 497.096 247.653 C 495.936 248.686 495.073 250.116 494.506 251.943 C 493.933 253.77 493.646 255.87 493.646 258.243 L 493.646 258.843 C 493.646 261.963 494.283 264.486 495.556 266.413 C 496.829 268.346 498.799 269.313 501.466 269.313 ZM 547.943 273.103 L 521.053 273.103 L 521.053 269.253 L 534.653 254.143 C 536.266 252.336 537.529 250.79 538.443 249.503 C 539.356 248.223 539.993 247.06 540.353 246.013 C 540.713 244.966 540.893 243.883 540.893 242.763 C 540.893 240.69 540.266 238.946 539.013 237.533 C 537.759 236.113 535.963 235.403 533.623 235.403 C 531.189 235.403 529.293 236.136 527.933 237.603 C 526.573 239.063 525.893 241.133 525.893 243.813 L 520.503 243.813 L 520.453 243.643 C 520.393 241.25 520.896 239.096 521.963 237.183 C 523.029 235.276 524.573 233.766 526.593 232.653 C 528.619 231.54 531.029 230.983 533.823 230.983 C 536.449 230.983 538.706 231.483 540.593 232.483 C 542.486 233.483 543.946 234.846 544.973 236.573 C 545.999 238.306 546.513 240.293 546.513 242.533 C 546.513 244.053 546.213 245.566 545.613 247.073 C 545.013 248.573 544.139 250.11 542.993 251.683 C 541.839 253.263 540.456 254.926 538.843 256.673 L 527.923 268.573 L 527.983 268.713 L 542.723 268.713 L 543.173 263.953 L 547.943 263.953 L 547.943 273.103 ZM 559.341 285.563 C 558.908 285.563 558.338 285.51 557.631 285.403 C 556.931 285.303 556.388 285.206 556.001 285.113 L 556.581 280.693 C 556.901 280.726 557.348 280.756 557.921 280.783 C 558.488 280.816 558.874 280.833 559.081 280.833 C 560.281 280.833 561.258 280.376 562.011 279.463 C 562.758 278.55 563.454 277.303 564.101 275.723 L 565.441 272.473 L 554.521 246.323 L 551.211 245.873 L 551.211 242.253 L 564.161 242.253 L 564.161 245.873 L 560.421 246.443 L 566.441 261.863 L 567.901 265.893 L 568.071 265.893 L 575.201 246.443 L 571.261 245.873 L 571.261 242.253 L 583.951 242.253 L 583.951 245.873 L 580.761 246.323 L 568.611 277.833 C 568.038 279.32 567.348 280.646 566.541 281.813 C 565.734 282.986 564.748 283.903 563.581 284.563 C 562.408 285.23 560.994 285.563 559.341 285.563 ZM 601.539 273.103 L 586.629 273.103 L 586.629 269.513 L 591.279 268.713 L 591.279 246.673 L 586.629 245.873 L 586.629 242.253 L 596.299 242.253 L 596.699 246.843 C 597.726 245.203 599.012 243.933 600.559 243.033 C 602.106 242.133 603.869 241.683 605.849 241.683 C 609.176 241.683 611.752 242.656 613.579 244.603 C 615.399 246.55 616.309 249.556 616.309 253.623 L 616.309 268.713 L 620.959 269.513 L 620.959 273.103 L 606.049 273.103 L 606.049 269.513 L 610.699 268.713 L 610.699 253.743 C 610.699 251.023 610.162 249.093 609.089 247.953 C 608.016 246.813 606.376 246.243 604.169 246.243 C 602.549 246.243 601.119 246.633 599.879 247.413 C 598.632 248.193 597.639 249.256 596.899 250.603 L 596.899 268.713 L 601.539 269.513 L 601.539 273.103 ZM 634.902 273.703 C 631.689 273.703 629.246 272.92 627.572 271.353 C 625.899 269.78 625.062 267.57 625.062 264.723 C 625.062 262.763 625.599 261.056 626.672 259.603 C 627.746 258.15 629.302 257.016 631.342 256.203 C 633.376 255.396 635.809 254.993 638.642 254.993 L 644.142 254.993 L 644.142 251.973 C 644.142 250.113 643.576 248.67 642.442 247.643 C 641.316 246.616 639.726 246.103 637.672 246.103 C 636.379 246.103 635.256 246.26 634.302 246.573 C 633.356 246.886 632.492 247.316 631.712 247.863 L 631.112 252.173 L 626.772 252.173 L 626.772 245.103 C 628.166 243.983 629.782 243.133 631.622 242.553 C 633.469 241.973 635.512 241.683 637.752 241.683 C 641.499 241.683 644.436 242.576 646.562 244.363 C 648.696 246.15 649.762 248.706 649.762 252.033 L 649.762 266.883 C 649.762 267.283 649.766 267.673 649.772 268.053 C 649.786 268.433 649.809 268.813 649.842 269.193 L 652.842 269.513 L 652.842 273.103 L 644.772 273.103 C 644.599 272.27 644.466 271.52 644.372 270.853 C 644.279 270.186 644.212 269.52 644.172 268.853 C 643.086 270.24 641.729 271.396 640.102 272.323 C 638.482 273.243 636.749 273.703 634.902 273.703 Z M 635.732 268.993 C 637.592 268.993 639.292 268.546 640.832 267.653 C 642.372 266.76 643.476 265.686 644.142 264.433 L 644.142 258.843 L 638.442 258.843 C 635.856 258.843 633.916 259.463 632.622 260.703 C 631.329 261.936 630.682 263.313 630.682 264.833 C 630.682 266.186 631.102 267.216 631.942 267.923 C 632.776 268.636 634.039 268.993 635.732 268.993 ZM 673.599 273.703 C 671.579 273.703 669.829 273.316 668.349 272.543 C 666.869 271.776 665.633 270.643 664.639 269.143 L 664.129 273.103 L 659.279 273.103 L 659.279 233.043 L 654.629 232.243 L 654.629 228.623 L 664.899 228.623 L 664.899 245.903 C 665.866 244.53 667.069 243.483 668.509 242.763 C 669.943 242.043 671.619 241.683 673.539 241.683 C 676.086 241.683 678.259 242.37 680.059 243.743 C 681.853 245.123 683.229 247.06 684.189 249.553 C 685.149 252.04 685.629 254.936 685.629 258.243 L 685.629 258.843 C 685.629 261.81 685.149 264.406 684.189 266.633 C 683.229 268.853 681.853 270.586 680.059 271.833 C 678.259 273.08 676.106 273.703 673.599 273.703 Z M 672.169 269.143 C 674.809 269.143 676.773 268.2 678.059 266.313 C 679.339 264.433 679.979 261.943 679.979 258.843 L 679.979 258.243 C 679.979 255.87 679.696 253.783 679.129 251.983 C 678.556 250.19 677.689 248.783 676.529 247.763 C 675.369 246.75 673.896 246.243 672.109 246.243 C 670.383 246.243 668.926 246.66 667.739 247.493 C 666.546 248.333 665.599 249.456 664.899 250.863 L 664.899 264.493 C 665.599 265.92 666.556 267.05 667.769 267.883 C 668.976 268.723 670.443 269.143 672.169 269.143 Z" transform="matrix(1, 0, 0, 1, 0, 0)" style="fill: rgb(37, 56, 79); white-space: pre;"/>
  </g>
</svg>